<mxfile host="app.diagrams.net" modified="2023-04-08T18:51:13.939Z" agent="Mozilla/5.0 (Windows NT 10.0; Win64; x64) AppleWebKit/537.36 (KHTML, like Gecko) Chrome/111.0.0.0 Safari/537.36" etag="5_j2Ju58Swe6TV_B1Xrc" version="21.1.5" type="device">
  <diagram name="Página-1" id="hzwKbGNu6Hn6OmBXbxTR">
    <mxGraphModel dx="880" dy="452" grid="1" gridSize="10" guides="1" tooltips="1" connect="1" arrows="1" fold="1" page="1" pageScale="1" pageWidth="150" pageHeight="200" math="0" shadow="0">
      <root>
        <mxCell id="0" />
        <mxCell id="1" parent="0" />
        <mxCell id="ExJKlvOfsBcdApQ2tT-8-1" value="&lt;b&gt;Pessoa que deseja adotar&lt;br&gt;um animal, ou doar o mesmo&lt;br&gt;&lt;/b&gt;" style="shape=umlActor;verticalLabelPosition=bottom;verticalAlign=top;html=1;outlineConnect=0;" parent="1" vertex="1">
          <mxGeometry x="85" y="135" width="30" height="60" as="geometry" />
        </mxCell>
        <mxCell id="ExJKlvOfsBcdApQ2tT-8-3" value="" style="rounded=0;whiteSpace=wrap;html=1;fillColor=#f5f5f5;strokeColor=#666666;fontColor=#333333;" parent="1" vertex="1">
          <mxGeometry x="205" y="70" width="360" height="280" as="geometry" />
        </mxCell>
        <mxCell id="ExJKlvOfsBcdApQ2tT-8-4" value="&lt;b&gt;Animore Project&lt;/b&gt;" style="rounded=0;whiteSpace=wrap;html=1;fillColor=#f5f5f5;strokeColor=#666666;fontColor=#333333;" parent="1" vertex="1">
          <mxGeometry x="205" y="50" width="160" height="20" as="geometry" />
        </mxCell>
        <mxCell id="ExJKlvOfsBcdApQ2tT-8-7" value="Realizar cadastro" style="ellipse;whiteSpace=wrap;html=1;" parent="1" vertex="1">
          <mxGeometry x="420" y="190" width="130" height="40" as="geometry" />
        </mxCell>
        <mxCell id="ExJKlvOfsBcdApQ2tT-8-8" value="Registrar animal&lt;br&gt;para doação" style="ellipse;whiteSpace=wrap;html=1;" parent="1" vertex="1">
          <mxGeometry x="250" y="220" width="150" height="45" as="geometry" />
        </mxCell>
        <mxCell id="ExJKlvOfsBcdApQ2tT-8-9" value="Buscar animal&lt;br&gt;para adotar" style="ellipse;whiteSpace=wrap;html=1;" parent="1" vertex="1">
          <mxGeometry x="235" y="90" width="130" height="45" as="geometry" />
        </mxCell>
        <mxCell id="ExJKlvOfsBcdApQ2tT-8-10" value="Comprar acessórios,&lt;br&gt;ração do animal" style="ellipse;whiteSpace=wrap;html=1;" parent="1" vertex="1">
          <mxGeometry x="360" y="130" width="150" height="50" as="geometry" />
        </mxCell>
        <mxCell id="ExJKlvOfsBcdApQ2tT-8-12" value="Registrar produtos, acessórios do animal para doação" style="ellipse;whiteSpace=wrap;html=1;" parent="1" vertex="1">
          <mxGeometry x="275" y="280" width="210" height="50" as="geometry" />
        </mxCell>
        <mxCell id="ExJKlvOfsBcdApQ2tT-8-13" value="" style="endArrow=classic;html=1;rounded=0;entryX=0;entryY=0.5;entryDx=0;entryDy=0;" parent="1" source="ExJKlvOfsBcdApQ2tT-8-1" target="ExJKlvOfsBcdApQ2tT-8-9" edge="1">
          <mxGeometry width="50" height="50" relative="1" as="geometry">
            <mxPoint x="115" y="110" as="sourcePoint" />
            <mxPoint x="245" y="10" as="targetPoint" />
          </mxGeometry>
        </mxCell>
        <mxCell id="ExJKlvOfsBcdApQ2tT-8-14" value="" style="endArrow=classic;html=1;rounded=0;entryX=0;entryY=0.5;entryDx=0;entryDy=0;" parent="1" source="ExJKlvOfsBcdApQ2tT-8-1" target="ExJKlvOfsBcdApQ2tT-8-10" edge="1">
          <mxGeometry width="50" height="50" relative="1" as="geometry">
            <mxPoint x="395" y="50" as="sourcePoint" />
            <mxPoint x="445" as="targetPoint" />
          </mxGeometry>
        </mxCell>
        <mxCell id="ExJKlvOfsBcdApQ2tT-8-15" value="" style="endArrow=classic;html=1;rounded=0;" parent="1" source="ExJKlvOfsBcdApQ2tT-8-1" target="ExJKlvOfsBcdApQ2tT-8-7" edge="1">
          <mxGeometry width="50" height="50" relative="1" as="geometry">
            <mxPoint x="385" y="20" as="sourcePoint" />
            <mxPoint x="435" y="-30" as="targetPoint" />
            <Array as="points" />
          </mxGeometry>
        </mxCell>
        <mxCell id="ExJKlvOfsBcdApQ2tT-8-16" value="" style="endArrow=classic;html=1;rounded=0;" parent="1" source="ExJKlvOfsBcdApQ2tT-8-1" target="ExJKlvOfsBcdApQ2tT-8-8" edge="1">
          <mxGeometry width="50" height="50" relative="1" as="geometry">
            <mxPoint x="394" y="40" as="sourcePoint" />
            <mxPoint x="444" y="-10" as="targetPoint" />
          </mxGeometry>
        </mxCell>
        <mxCell id="ExJKlvOfsBcdApQ2tT-8-21" value="" style="endArrow=classic;html=1;rounded=0;entryX=0;entryY=0.5;entryDx=0;entryDy=0;" parent="1" source="ExJKlvOfsBcdApQ2tT-8-1" target="ExJKlvOfsBcdApQ2tT-8-12" edge="1">
          <mxGeometry width="50" height="50" relative="1" as="geometry">
            <mxPoint x="105" y="320" as="sourcePoint" />
            <mxPoint x="155" y="270" as="targetPoint" />
            <Array as="points">
              <mxPoint x="175" y="200" />
              <mxPoint x="215" y="250" />
            </Array>
          </mxGeometry>
        </mxCell>
      </root>
    </mxGraphModel>
  </diagram>
</mxfile>
